<svg width="7" height="10" viewBox="0 0 7 10" fill="none" xmlns="http://www.w3.org/2000/svg" preserveAspectRatio="none">
<rect x="0.383545" y="0.485474" width="5.94521" height="9.02913" fill="#D2CFC5"/>
<mask id="mask0_19578_2" style="mask-type:alpha" maskUnits="userSpaceOnUse" x="0" y="0" width="7" height="10">
<rect width="7" height="10" rx="0.3" fill="#D9D9D9"/>
</mask>
<g mask="url(#mask0_19578_2)">
<path d="M0.383562 0.192308L0 0V10L0.383562 9.51456V0.192308Z" fill="url(#paint0_linear_19578_2)"/>
<path d="M6.32877 0.485437L7 0V10L6.32877 9.80769V0.485437Z" fill="url(#paint1_linear_19578_2)"/>
<path d="M0 10L0.383562 9.51456H6.32877L7 10H0Z" fill="url(#paint2_linear_19578_2)"/>
<path d="M0 0L0.383562 0.485437H6.32877L7 0H0Z" fill="url(#paint3_linear_19578_2)"/>
</g>
<defs>
<linearGradient id="paint0_linear_19578_2" x1="-1.53425" y1="8.25243" x2="0.257138" y2="9.68699" gradientUnits="userSpaceOnUse">
<stop offset="0.988194" stop-color="#EBE5DD"/>
<stop offset="1" stop-color="#696661"/>
</linearGradient>
<linearGradient id="paint1_linear_19578_2" x1="6.61644" y1="0.291262" x2="7.73689" y2="1.78281" gradientUnits="userSpaceOnUse">
<stop stop-color="#A4A199"/>
<stop offset="0.0624503" stop-color="#878379"/>
</linearGradient>
<linearGradient id="paint2_linear_19578_2" x1="0.239726" y1="9.70874" x2="1.30427" y2="10.5212" gradientUnits="userSpaceOnUse">
<stop stop-color="#918D87"/>
<stop offset="0.0154054" stop-color="#696661"/>
</linearGradient>
<linearGradient id="paint3_linear_19578_2" x1="5.84932" y1="-0.825243" x2="6.67751" y2="0.28144" gradientUnits="userSpaceOnUse">
<stop offset="0.892566" stop-color="#FEFFFE"/>
<stop offset="0.995933" stop-color="#878379"/>
</linearGradient>
</defs>
</svg>
